<svg xmlns="http://www.w3.org/2000/svg" xmlns:svg="http://www.w3.org/2000/svg" id="svg8" width="2513.558" height="921.362" version="1.1" viewBox="0 0 665.046 243.777"><metadata id="metadata5"/><g id="layer1" transform="translate(-35.620726,86.714536)"><rect id="rect1044" width="663.529" height="242.26" x="36.379" y="-85.956" fill="#f6f8ff" fill-opacity="1" stroke="#000" stroke-dasharray="none" stroke-dashoffset="0" stroke-linecap="round" stroke-linejoin="round" stroke-miterlimit="4" stroke-opacity="1" stroke-width="1.517" opacity="1" paint-order="markers stroke fill"/><g id="g1306" transform="translate(50.283027,1.588806)"><g id="g1259" transform="translate(149.67093)"><path id="path819" fill="#272d2d" fill-opacity="1" stroke="#000" stroke-dasharray="none" stroke-linecap="round" stroke-linejoin="round" stroke-miterlimit="4" stroke-opacity="1" stroke-width="1.904" d="M 33.526364,29.817727 V 69.722834 H 20.647296 V -25.902577 H 47.67331 q 9.075406,0 15.681765,1.86847 6.606359,1.801734 10.877141,5.271732 4.337503,3.470011 6.406166,8.408093 2.068649,4.8713602 2.068649,10.94387612 0,5.07153978 -1.601542,9.47577888 -1.601541,4.404239 -4.671154,7.940985 -3.00289,3.469999 -7.407129,6.005781 -4.337518,2.469035 -9.876177,3.670191 2.53577,1.601542 4.270781,4.070589 L 91.315317,69.722834 H 79.837611 q -3.536746,0 -5.20501,-2.735989 L 49.808707,32.820605 Q 48.674261,31.219076 47.33966,30.551763 46.071768,29.817702 43.335806,29.817702 Z m 0,-9.409057 h 13.613103 q 5.605396,0 9.876177,-1.334625 4.337504,-1.401349 7.206937,-3.870384 2.936155,-2.535783 4.40424,-6.0057811 1.46807,-3.4700109 1.46807,-7.6740574 0,-8.5415507 -5.605395,-12.8790675 Q 58.8841,-15.692749 47.67331,-15.692749 H 33.526364 Z" font-family="lato" font-size="medium" font-stretch="normal" font-style="normal" font-variant="normal" font-weight="normal" letter-spacing="0" word-spacing="0" style="line-height:1.25;-inkscape-font-specification:lato"/><path id="path821" fill="#a846a0" fill-opacity="1" stroke="#000" stroke-dasharray="none" stroke-linecap="round" stroke-linejoin="round" stroke-miterlimit="4" stroke-opacity="1" stroke-width="1.904" d="m 163.18387,-25.902577 v 10.543478 h -45.97758 v 31.763916 h 37.23584 v 10.143092 h -37.23584 v 32.63141 h 46.04432 l -0.0669,10.543515 h -58.92338 v -95.625411 z" font-family="lato" font-size="medium" font-stretch="normal" font-style="normal" font-variant="normal" font-weight="normal" letter-spacing="0" word-spacing="0" style="line-height:1.25;-inkscape-font-specification:lato"/><path id="path823" fill="#50514f" fill-opacity="1" stroke="#000" stroke-dasharray="none" stroke-linecap="round" stroke-linejoin="round" stroke-miterlimit="4" stroke-opacity="1" stroke-width="1.904" d="m 194.2157,33.955039 v 35.767795 h -12.87905 v -95.625411 h 28.22716 q 9.07539,0 15.74849,2.135385 6.73982,2.068662 11.14405,5.939058 4.40425,3.870384 6.53963,9.3423218 2.20212,5.4719378 2.20212,12.2117543 0,6.6730939 -2.33558,12.2117539 -2.33558,5.538661 -6.87328,9.542515 -4.47096,4.003853 -11.14406,6.272708 -6.60636,2.20212 -15.28137,2.20212 z m 0,-10.276563 h 15.34811 q 5.53866,0 9.74271,-1.468071 4.27077,-1.468084 7.1402,-4.070589 2.93616,-2.66924 4.40424,-6.339431 1.46809,-3.6702036 1.46809,-8.0744429 0,-9.1421288 -5.67213,-14.2804161 -5.6054,-5.138275 -17.08311,-5.138275 H 194.2157 Z" font-family="lato" font-size="medium" font-stretch="normal" font-style="normal" font-variant="normal" font-weight="normal" letter-spacing="0" word-spacing="0" style="line-height:1.25;-inkscape-font-specification:lato"/><path id="path825" fill="#23ce6b" fill-opacity="1" stroke="#000" stroke-dasharray="none" stroke-linecap="round" stroke-linejoin="round" stroke-miterlimit="4" stroke-opacity="1" stroke-width="1.904" d="m 274.35876,58.845655 h 41.37316 v 10.877179 h -54.25223 v -95.625411 h 12.87907 z" font-family="lato" font-size="medium" font-stretch="normal" font-style="normal" font-variant="normal" font-weight="normal" letter-spacing="0" word-spacing="0" style="line-height:1.25;-inkscape-font-specification:lato"/></g><g id="g1253" transform="matrix(1.0648126,0,0,1.0648126,138.77013,-6.0940174)"><g id="g1180" fill="#272d2d" fill-opacity="1"><path id="path832" fill="#272d2d" fill-opacity="1" stroke="none" stroke-width=".356" d="m 33.662217,86.18678 q 0.452486,0.153149 0.877126,0.654363 0.431601,0.501216 0.863203,1.37834 l 1.427069,2.840216 H 35.31901 L 33.989399,88.393516 Q 33.474262,87.349319 32.98697,87.008215 32.506639,86.66711 31.671282,86.66711 h -1.531489 v 4.392589 h -1.406186 v -10.39324 h 3.174359 q 1.782097,0 2.659222,0.744861 0.877126,0.74486 0.877126,2.248504 0,0.981544 -0.459447,1.628946 -0.452485,0.647403 -1.32265,0.89801 z m -3.522424,-4.364744 v 3.689497 h 1.768173 q 1.016352,0 1.531489,-0.466409 0.522099,-0.473369 0.522099,-1.3853 0,-0.911932 -0.522099,-1.37138 -0.515137,-0.466408 -1.531489,-0.466408 z" font-family="sans-serif" font-size="medium" font-style="normal" font-weight="normal" letter-spacing="0" word-spacing="0" style="line-height:1.25"/><path id="path834" fill="#272d2d" fill-opacity="1" stroke="none" stroke-width=".356" d="m 44.612364,86.841143 v 0.62652 h -5.889271 q 0.08354,1.322649 0.793589,2.01878 0.717016,0.68917 1.990936,0.68917 0.737899,0 1.427069,-0.180994 0.696132,-0.180994 1.37834,-0.542982 v 1.211268 q -0.68917,0.292376 -1.413146,0.445524 -0.723977,0.153149 -1.468837,0.153149 -1.865632,0 -2.958559,-1.085965 -1.085965,-1.085964 -1.085965,-2.937674 0,-1.914361 1.030275,-3.035133 1.037236,-1.127732 2.791487,-1.127732 1.573256,0 2.485189,1.016351 0.918893,1.009391 0.918893,2.749718 z m -1.280882,-0.375911 q -0.01392,-1.051158 -0.591711,-1.677676 -0.570828,-0.626518 -1.517567,-0.626518 -1.072042,0 -1.719444,0.605634 -0.640441,0.605634 -0.737899,1.705522 z" font-family="sans-serif" font-size="medium" font-style="normal" font-weight="normal" letter-spacing="0" word-spacing="0" style="line-height:1.25"/><path id="path836" fill="#272d2d" fill-opacity="1" stroke="none" stroke-width=".356" d="m 51.685059,83.492751 v 1.211269 q -0.542983,-0.278453 -1.127733,-0.417679 -0.58475,-0.139226 -1.211268,-0.139226 -0.9537,0 -1.434031,0.292376 -0.473369,0.292375 -0.473369,0.877126 0,0.445524 0.341104,0.703092 0.341104,0.250608 1.371379,0.480331 l 0.438563,0.09746 q 1.364417,0.292375 1.935245,0.828397 0.577789,0.529059 0.577789,1.482759 0,1.085965 -0.863203,1.719445 -0.856242,0.633478 -2.359885,0.633478 -0.626519,0 -1.308727,-0.125303 -0.675248,-0.118343 -1.42707,-0.361989 v -1.322648 q 0.710054,0.368949 1.399224,0.556905 0.68917,0.180993 1.364418,0.180993 0.904971,0 1.392263,-0.306297 0.487291,-0.31326 0.487291,-0.877126 0,-0.522099 -0.355027,-0.800551 -0.348065,-0.278453 -1.53845,-0.536021 l -0.445524,-0.10442 q -1.190384,-0.250607 -1.719444,-0.765744 -0.52906,-0.522098 -0.52906,-1.427069 0,-1.099887 0.779667,-1.69856 0.779667,-0.598674 2.213698,-0.598674 0.710054,0 1.336572,0.104419 0.626518,0.10442 1.155578,0.313259 z" font-family="sans-serif" font-size="medium" font-style="normal" font-weight="normal" letter-spacing="0" word-spacing="0" style="line-height:1.25"/><path id="path838" fill="#272d2d" fill-opacity="1" stroke="none" stroke-width=".356" d="m 57.163612,84.161039 q -1.030274,0 -1.628947,0.807512 -0.598673,0.800551 -0.598673,2.199775 0,1.399224 0.591711,2.206736 0.598673,0.800551 1.635909,0.800551 1.023313,0 1.621986,-0.807512 0.598673,-0.807512 0.598673,-2.199775 0,-1.385301 -0.598673,-2.192814 -0.598673,-0.814473 -1.621986,-0.814473 z m 0,-1.085965 q 1.670715,0 2.624415,1.085965 0.9537,1.085964 0.9537,3.007287 0,1.914361 -0.9537,3.007287 -0.9537,1.085965 -2.624415,1.085965 -1.677676,0 -2.631376,-1.085965 -0.946739,-1.092926 -0.946739,-3.007287 0,-1.921323 0.946739,-3.007287 0.9537,-1.085965 2.631376,-1.085965 z" font-family="sans-serif" font-size="medium" font-style="normal" font-weight="normal" letter-spacing="0" word-spacing="0" style="line-height:1.25"/><path id="path840" fill="#272d2d" fill-opacity="1" stroke="none" stroke-width=".356" d="m 62.732664,87.982799 v -4.71977 h 1.280881 v 4.671042 q 0,1.106848 0.431602,1.663753 0.431601,0.549943 1.294804,0.549943 1.037236,0 1.635909,-0.661325 0.605634,-0.661323 0.605634,-1.80298 v -4.420434 h 1.280882 v 7.796671 h -1.280882 v -1.197346 q -0.466408,0.710054 -1.085965,1.05812 -0.612595,0.341105 -1.427069,0.341105 -1.343534,0 -2.039665,-0.835358 -0.696131,-0.835358 -0.696131,-2.443421 z m 3.223088,-4.907725 z" font-family="sans-serif" font-size="medium" font-style="normal" font-weight="normal" letter-spacing="0" word-spacing="0" style="line-height:1.25"/><path id="path842" fill="#272d2d" fill-opacity="1" stroke="none" stroke-width=".356" d="m 76.418607,84.460374 q -0.215801,-0.125304 -0.47337,-0.180993 -0.250607,-0.06265 -0.556905,-0.06265 -1.085965,0 -1.670715,0.710054 -0.577789,0.703093 -0.577789,2.025742 v 4.107175 H 71.851985 V 83.26303 h 1.287843 v 1.211269 q 0.403756,-0.710054 1.051158,-1.051159 0.647403,-0.348065 1.573257,-0.348065 0.132265,0 0.292376,0.02088 0.16011,0.01392 0.355026,0.04873 z" font-family="sans-serif" font-size="medium" font-style="normal" font-weight="normal" letter-spacing="0" word-spacing="0" style="line-height:1.25"/><path id="path844" fill="#272d2d" fill-opacity="1" stroke="none" stroke-width=".356" d="m 83.059697,83.562365 v 1.197346 q -0.542982,-0.299337 -1.092926,-0.445525 -0.542982,-0.153148 -1.099887,-0.153148 -1.246075,0 -1.935246,0.793589 -0.68917,0.786629 -0.68917,2.213698 0,1.427069 0.68917,2.220659 0.689171,0.786628 1.935246,0.786628 0.556905,0 1.099887,-0.146187 0.549944,-0.153149 1.092926,-0.452485 v 1.183423 q -0.536021,0.250607 -1.11381,0.375911 -0.570827,0.125303 -1.21823,0.125303 -1.761212,0 -2.798448,-1.106848 -1.037235,-1.106849 -1.037235,-2.986404 0,-1.9074 1.044197,-3.000326 1.051158,-1.092926 2.875022,-1.092926 0.591712,0 1.155578,0.125303 0.563867,0.118343 1.092926,0.361989 z" font-family="sans-serif" font-size="medium" font-style="normal" font-weight="normal" letter-spacing="0" word-spacing="0" style="line-height:1.25"/><path id="path846" fill="#272d2d" fill-opacity="1" stroke="none" stroke-width=".356" d="m 91.956257,86.841143 v 0.62652 h -5.889271 q 0.08354,1.322649 0.793589,2.01878 0.717016,0.68917 1.990936,0.68917 0.737899,0 1.427069,-0.180994 0.696132,-0.180994 1.378341,-0.542982 v 1.211268 q -0.689171,0.292376 -1.413147,0.445524 -0.723977,0.153149 -1.468837,0.153149 -1.865632,0 -2.958559,-1.085965 -1.085964,-1.085964 -1.085964,-2.937674 0,-1.914361 1.030274,-3.035133 1.037236,-1.127732 2.791487,-1.127732 1.573257,0 2.485189,1.016351 0.918893,1.009391 0.918893,2.749718 z m -1.280882,-0.375911 q -0.01392,-1.051158 -0.591711,-1.677676 -0.570828,-0.626518 -1.517567,-0.626518 -1.072042,0 -1.719444,0.605634 -0.640441,0.605634 -0.737899,1.705522 z" font-family="sans-serif" font-size="medium" font-style="normal" font-weight="normal" letter-spacing="0" word-spacing="0" style="line-height:1.25"/><path id="path848" fill="#272d2d" fill-opacity="1" stroke="none" stroke-width=".356" d="m 99.028958,83.492751 v 1.211269 q -0.54298,-0.278453 -1.127735,-0.417679 -0.58475,-0.139226 -1.211269,-0.139226 -0.9537,0 -1.43403,0.292376 -0.473369,0.292375 -0.473369,0.877126 0,0.445524 0.341104,0.703092 0.341104,0.250608 1.371379,0.480331 L 96.9336,86.5975 q 1.364418,0.292375 1.935248,0.828397 0.57779,0.529059 0.57779,1.482759 0,1.085965 -0.86321,1.719445 -0.856238,0.633478 -2.359882,0.633478 -0.626518,0 -1.308727,-0.125303 -0.675247,-0.118343 -1.427069,-0.361989 v -1.322648 q 0.710054,0.368949 1.399224,0.556905 0.68917,0.180993 1.364418,0.180993 0.90497,0 1.392262,-0.306297 0.487294,-0.31326 0.487294,-0.877126 0,-0.522099 -0.355029,-0.800551 -0.348065,-0.278453 -1.53845,-0.536021 l -0.445524,-0.10442 q -1.190385,-0.250607 -1.719444,-0.765745 -0.52906,-0.522098 -0.52906,-1.427069 0,-1.099887 0.779667,-1.69856 0.779667,-0.598673 2.213698,-0.598673 0.710054,0 1.336572,0.104419 0.62652,0.10442 1.15558,0.313259 z" font-family="sans-serif" font-size="medium" font-style="normal" font-weight="normal" letter-spacing="0" word-spacing="0" style="line-height:1.25"/></g><g id="g1191" fill="#a846a0" fill-opacity="1"><path id="path850" fill="#a846a0" fill-opacity="1" stroke="none" stroke-width=".356" d="m 106.0738,80.666459 h 6.57148 v 1.183423 h -5.16529 v 3.076901 h 4.94949 v 1.183423 h -4.94949 v 3.766071 h 5.2906 V 91.0597 h -6.69679 z" font-family="sans-serif" font-size="medium" font-style="normal" font-weight="normal" letter-spacing="0" word-spacing="0" style="line-height:1.25"/><path id="path852" fill="#a846a0" fill-opacity="1" stroke="none" stroke-width=".356" d="M 121.50703,86.353852 V 91.0597 h -1.28088 v -4.66408 q 0,-1.106849 -0.4316,-1.656792 -0.4316,-0.549944 -1.29481,-0.549944 -1.03723,0 -1.63591,0.661325 -0.59867,0.661324 -0.59867,1.80298 V 91.0597 h -1.28784 v -7.796671 h 1.28784 v 1.211269 q 0.45945,-0.703093 1.07901,-1.051159 0.62651,-0.348065 1.44099,-0.348065 1.34353,0 2.0327,0.835357 0.68917,0.828397 0.68917,2.443421 z" font-family="sans-serif" font-size="medium" font-style="normal" font-weight="normal" letter-spacing="0" word-spacing="0" style="line-height:1.25"/><path id="path854" fill="#a846a0" fill-opacity="1" stroke="none" stroke-width=".356" d="m 128.57973,84.460374 q -0.2158,-0.125304 -0.47337,-0.180993 -0.25061,-0.06265 -0.5569,-0.06265 -1.08597,0 -1.67072,0.710054 -0.57779,0.703093 -0.57779,2.025742 v 4.107175 h -1.28784 V 83.26303 h 1.28784 v 1.211269 q 0.40376,-0.710054 1.05116,-1.051159 0.6474,-0.348065 1.57326,-0.348065 0.13226,0 0.29237,0.02088 0.16011,0.01392 0.35503,0.04873 z" font-family="sans-serif" font-size="medium" font-style="normal" font-weight="normal" letter-spacing="0" word-spacing="0" style="line-height:1.25"/><path id="path856" fill="#a846a0" fill-opacity="1" stroke="none" stroke-width=".356" d="m 129.92326,83.263029 h 1.28089 V 91.0597 h -1.28089 z m 0,-3.035133 h 1.28089 v 1.621986 h -1.28089 z" font-family="sans-serif" font-size="medium" font-style="normal" font-weight="normal" letter-spacing="0" word-spacing="0" style="line-height:1.25"/><path id="path858" fill="#a846a0" fill-opacity="1" stroke="none" stroke-width=".356" d="m 139.49507,83.562365 v 1.197346 q -0.54299,-0.299337 -1.09293,-0.445525 -0.54298,-0.153148 -1.09989,-0.153148 -1.24607,0 -1.93524,0.793589 -0.68917,0.786629 -0.68917,2.213698 0,1.427069 0.68917,2.220659 0.68917,0.786628 1.93524,0.786628 0.55691,0 1.09989,-0.146187 0.54994,-0.153149 1.09293,-0.452485 v 1.183423 q -0.53602,0.250607 -1.11381,0.375911 -0.57083,0.125303 -1.21823,0.125303 -1.76122,0 -2.79845,-1.106848 -1.03724,-1.106849 -1.03724,-2.986404 0,-1.9074 1.0442,-3.000326 1.05116,-1.092926 2.87502,-1.092926 0.59171,0 1.15558,0.125303 0.56387,0.118343 1.09293,0.361989 z" font-family="sans-serif" font-size="medium" font-style="normal" font-weight="normal" letter-spacing="0" word-spacing="0" style="line-height:1.25"/><path id="path860" fill="#a846a0" fill-opacity="1" stroke="none" stroke-width=".356" d="M 148.20367,86.353852 V 91.0597 h -1.28088 v -4.66408 q 0,-1.106849 -0.4316,-1.656792 -0.4316,-0.549944 -1.29481,-0.549944 -1.03723,0 -1.63591,0.661325 -0.59867,0.661324 -0.59867,1.80298 V 91.0597 h -1.28784 V 80.227896 h 1.28784 v 4.246402 q 0.45945,-0.703093 1.07901,-1.051159 0.62651,-0.348065 1.44099,-0.348065 1.34353,0 2.0327,0.835357 0.68917,0.828396 0.68917,2.443421 z" font-family="sans-serif" font-size="medium" font-style="normal" font-weight="normal" letter-spacing="0" word-spacing="0" style="line-height:1.25"/><path id="path862" fill="#a846a0" fill-opacity="1" stroke="none" stroke-width=".356" d="m 150.75847,83.263029 h 1.28088 V 91.0597 h -1.28088 z m 0,-3.035133 h 1.28088 v 1.621986 h -1.28088 z" font-family="sans-serif" font-size="medium" font-style="normal" font-weight="normal" letter-spacing="0" word-spacing="0" style="line-height:1.25"/><path id="path864" fill="#a846a0" fill-opacity="1" stroke="none" stroke-width=".356" d="M 161.20044,86.353852 V 91.0597 h -1.28088 v -4.66408 q 0,-1.106849 -0.4316,-1.656792 -0.4316,-0.549944 -1.2948,-0.549944 -1.03724,0 -1.63591,0.661325 -0.59868,0.661324 -0.59868,1.80298 V 91.0597 h -1.28784 v -7.796671 h 1.28784 v 1.211269 q 0.45945,-0.703093 1.07901,-1.051159 0.62652,-0.348065 1.44099,-0.348065 1.34353,0 2.0327,0.835357 0.68917,0.828397 0.68917,2.443421 z" font-family="sans-serif" font-size="medium" font-style="normal" font-weight="normal" letter-spacing="0" word-spacing="0" style="line-height:1.25"/><path id="path866" fill="#a846a0" fill-opacity="1" stroke="none" stroke-width=".356" d="m 168.88574,87.070868 q 0,-1.392263 -0.57779,-2.158008 -0.57083,-0.765744 -1.60806,-0.765744 -1.03028,0 -1.60807,0.765744 -0.57083,0.765745 -0.57083,2.158008 0,1.385301 0.57083,2.151045 0.57779,0.765744 1.60807,0.765744 1.03723,0 1.60806,-0.765744 0.57779,-0.765744 0.57779,-2.151045 z m 1.28088,3.02121 q 0,1.990934 -0.88409,2.958557 -0.88408,0.974584 -2.70795,0.974584 -0.67524,0 -1.27392,-0.10442 -0.59867,-0.09746 -1.16254,-0.306298 v -1.246075 q 0.56387,0.306298 1.11381,0.452486 0.54995,0.146187 1.12077,0.146187 1.26,0 1.88652,-0.661325 0.62652,-0.654363 0.62652,-1.983974 v -0.633479 q -0.3968,0.68917 -1.01635,1.030274 -0.61956,0.341104 -1.48276,0.341104 -1.43403,0 -2.31116,-1.092926 -0.87712,-1.092926 -0.87712,-2.895906 0,-1.809942 0.87712,-2.902868 0.87713,-1.092926 2.31116,-1.092926 0.8632,0 1.48276,0.341104 0.61955,0.341104 1.01635,1.030274 v -1.183423 h 1.28088 z" font-family="sans-serif" font-size="medium" font-style="normal" font-weight="normal" letter-spacing="0" word-spacing="0" style="line-height:1.25"/></g><g id="g1202" fill="#50514f" fill-opacity="1"><path id="path868" fill="#50514f" fill-opacity="1" stroke="none" stroke-width=".356" d="m 178.79864,81.822037 v 3.905297 h 1.76817 q 0.98155,0 1.51757,-0.508176 0.53602,-0.508176 0.53602,-1.447953 0,-0.932816 -0.53602,-1.440992 -0.53602,-0.508176 -1.51757,-0.508176 z m -1.40619,-1.155578 h 3.17436 q 1.74729,0 2.63834,0.793589 0.89801,0.786628 0.89801,2.311156 0,1.53845 -0.89801,2.325079 -0.89105,0.786628 -2.63834,0.786628 h -1.76817 v 4.176788 h -1.40619 z" font-family="sans-serif" font-size="medium" font-style="normal" font-weight="normal" letter-spacing="0" word-spacing="0" style="line-height:1.25"/><path id="path870" fill="#50514f" fill-opacity="1" stroke="none" stroke-width=".356" d="m 192.09475,86.841143 v 0.62652 h -5.88927 q 0.0835,1.322649 0.79359,2.01878 0.71702,0.68917 1.99094,0.68917 0.73789,0 1.42707,-0.180994 0.69613,-0.180994 1.37834,-0.542982 v 1.211268 q -0.68917,0.292376 -1.41315,0.445524 -0.72398,0.153149 -1.46884,0.153149 -1.86563,0 -2.95856,-1.085965 -1.08596,-1.085964 -1.08596,-2.937674 0,-1.914361 1.03027,-3.035133 1.03724,-1.127732 2.79149,-1.127732 1.57326,0 2.48519,1.016351 0.91889,1.009391 0.91889,2.749718 z m -1.28088,-0.375911 q -0.0139,-1.051158 -0.59171,-1.677676 -0.57083,-0.626518 -1.51757,-0.626518 -1.07204,0 -1.71944,0.605634 -0.64044,0.605634 -0.7379,1.705522 z" font-family="sans-serif" font-size="medium" font-style="normal" font-weight="normal" letter-spacing="0" word-spacing="0" style="line-height:1.25"/><path id="path872" fill="#50514f" fill-opacity="1" stroke="none" stroke-width=".356" d="m 198.71496,84.460374 q -0.2158,-0.125304 -0.47337,-0.180993 -0.25061,-0.06265 -0.5569,-0.06265 -1.08597,0 -1.67072,0.710054 -0.57779,0.703093 -0.57779,2.025742 v 4.107175 h -1.28784 V 83.26303 h 1.28784 v 1.211269 q 0.40376,-0.710054 1.05116,-1.051159 0.6474,-0.348065 1.57326,-0.348065 0.13226,0 0.29237,0.02088 0.16011,0.01392 0.35503,0.04873 z" font-family="sans-serif" font-size="medium" font-style="normal" font-weight="normal" letter-spacing="0" word-spacing="0" style="line-height:1.25"/><path id="path874" fill="#50514f" fill-opacity="1" stroke="none" stroke-width=".356" d="m 206.41418,86.841143 v 0.62652 h -5.88927 q 0.0835,1.322649 0.79359,2.01878 0.71701,0.68917 1.99093,0.68917 0.7379,0 1.42707,-0.180994 0.69613,-0.180994 1.37834,-0.542982 v 1.211268 q -0.68917,0.292376 -1.41314,0.445524 -0.72398,0.153149 -1.46884,0.153149 -1.86563,0 -2.95856,-1.085965 -1.08596,-1.085964 -1.08596,-2.937674 0,-1.914361 1.03027,-3.035133 1.03724,-1.127732 2.79149,-1.127732 1.57325,0 2.48519,1.016351 0.91889,1.009391 0.91889,2.749718 z m -1.28088,-0.375911 q -0.0139,-1.051158 -0.59171,-1.677676 -0.57083,-0.626518 -1.51757,-0.626518 -1.07204,0 -1.71945,0.605634 -0.64044,0.605634 -0.73789,1.705522 z" font-family="sans-serif" font-size="medium" font-style="normal" font-weight="normal" letter-spacing="0" word-spacing="0" style="line-height:1.25"/><path id="path876" fill="#50514f" fill-opacity="1" stroke="none" stroke-width=".356" d="M 214.99748,86.353852 V 91.0597 h -1.28088 v -4.66408 q 0,-1.106849 -0.4316,-1.656792 -0.43161,-0.549944 -1.29481,-0.549944 -1.03723,0 -1.63591,0.661325 -0.59867,0.661324 -0.59867,1.80298 V 91.0597 h -1.28784 v -7.796671 h 1.28784 v 1.211269 q 0.45945,-0.703093 1.079,-1.051159 0.62652,-0.348065 1.441,-0.348065 1.34353,0 2.0327,0.835357 0.68917,0.828397 0.68917,2.443421 z" font-family="sans-serif" font-size="medium" font-style="normal" font-weight="normal" letter-spacing="0" word-spacing="0" style="line-height:1.25"/><path id="path878" fill="#50514f" fill-opacity="1" stroke="none" stroke-width=".356" d="M 224.03326,86.353852 V 91.0597 h -1.28088 v -4.66408 q 0,-1.106849 -0.4316,-1.656792 -0.4316,-0.549944 -1.29481,-0.549944 -1.03723,0 -1.63591,0.661325 -0.59867,0.661324 -0.59867,1.80298 V 91.0597 h -1.28784 v -7.796671 h 1.28784 v 1.211269 q 0.45945,-0.703093 1.07901,-1.051159 0.62651,-0.348065 1.44099,-0.348065 1.34353,0 2.0327,0.835357 0.68917,0.828397 0.68917,2.443421 z" font-family="sans-serif" font-size="medium" font-style="normal" font-weight="normal" letter-spacing="0" word-spacing="0" style="line-height:1.25"/><path id="path880" fill="#50514f" fill-opacity="1" stroke="none" stroke-width=".356" d="m 226.58806,83.263029 h 1.28088 V 91.0597 h -1.28088 z m 0,-3.035133 h 1.28088 v 1.621986 h -1.28088 z" font-family="sans-serif" font-size="medium" font-style="normal" font-weight="normal" letter-spacing="0" word-spacing="0" style="line-height:1.25"/><path id="path882" fill="#50514f" fill-opacity="1" stroke="none" stroke-width=".356" d="m 234.09235,87.140481 q -1.55237,0 -2.15104,0.355027 -0.59868,0.355027 -0.59868,1.211268 0,0.682209 0.44553,1.085965 0.45248,0.396795 1.22519,0.396795 1.06508,0 1.70552,-0.751822 0.6474,-0.758783 0.6474,-2.011819 v -0.285414 z m 2.5548,-0.52906 V 91.0597 h -1.28088 v -1.183423 q -0.43856,0.710054 -1.09292,1.051158 -0.65437,0.334143 -1.60111,0.334143 -1.19734,0 -1.9074,-0.668286 -0.70309,-0.675247 -0.70309,-1.80298 0,-1.315688 0.87713,-1.983975 0.88408,-0.668285 2.63137,-0.668285 h 1.79602 v -0.125304 q 0,-0.884087 -0.58475,-1.364418 -0.57779,-0.487291 -1.62895,-0.487291 -0.66828,0 -1.30176,0.16011 -0.63348,0.16011 -1.21823,0.48033 v -1.183424 q 0.70309,-0.271491 1.36442,-0.403756 0.66132,-0.139225 1.28784,-0.139225 1.6916,0 2.52696,0.877125 0.83535,0.877126 0.83535,2.659222 z" font-family="sans-serif" font-size="medium" font-style="normal" font-weight="normal" letter-spacing="0" word-spacing="0" style="line-height:1.25"/><path id="path884" fill="#50514f" fill-opacity="1" stroke="none" stroke-width=".356" d="m 239.28549,80.227896 h 1.28089 V 91.0597 h -1.28089 z" font-family="sans-serif" font-size="medium" font-style="normal" font-weight="normal" letter-spacing="0" word-spacing="0" style="line-height:1.25"/></g><g id="g1212" fill="#23ce6b" fill-opacity="1"><path id="path886" fill="#23ce6b" fill-opacity="1" stroke="none" stroke-width=".356" d="m 247.834,80.666459 h 1.40618 v 9.209818 h 5.06088 V 91.0597 H 247.834 Z" font-family="sans-serif" font-size="medium" font-style="normal" font-weight="normal" letter-spacing="0" word-spacing="0" style="line-height:1.25"/><path id="path888" fill="#23ce6b" fill-opacity="1" stroke="none" stroke-width=".356" d="m 262.13949,86.841143 v 0.62652 h -5.88927 q 0.0835,1.322649 0.79359,2.01878 0.71701,0.68917 1.99093,0.68917 0.7379,0 1.42707,-0.180994 0.69614,-0.180994 1.37834,-0.542982 v 1.211268 q -0.68917,0.292376 -1.41314,0.445524 -0.72398,0.153149 -1.46884,0.153149 -1.86563,0 -2.95856,-1.085965 -1.08596,-1.085964 -1.08596,-2.937674 0,-1.914361 1.03027,-3.035133 1.03724,-1.127732 2.79149,-1.127732 1.57325,0 2.48519,1.016351 0.91889,1.009391 0.91889,2.749718 z m -1.28088,-0.375911 q -0.0139,-1.051158 -0.59171,-1.677676 -0.57083,-0.626518 -1.51757,-0.626518 -1.07204,0 -1.71944,0.605634 -0.64044,0.605634 -0.7379,1.705522 z" font-family="sans-serif" font-size="medium" font-style="normal" font-weight="normal" letter-spacing="0" word-spacing="0" style="line-height:1.25"/><path id="path890" fill="#23ce6b" fill-opacity="1" stroke="none" stroke-width=".356" d="m 267.78512,87.140481 q -1.55238,0 -2.15105,0.355027 -0.59867,0.355027 -0.59867,1.211268 0,0.682209 0.44552,1.085965 0.45249,0.396795 1.22519,0.396795 1.06508,0 1.70552,-0.751822 0.64741,-0.758783 0.64741,-2.011819 v -0.285414 z m 2.5548,-0.52906 V 91.0597 h -1.28088 v -1.183423 q -0.43857,0.710054 -1.09293,1.051158 -0.65436,0.334143 -1.6011,0.334143 -1.19735,0 -1.9074,-0.668286 -0.70309,-0.675247 -0.70309,-1.80298 0,-1.315688 0.87712,-1.983975 0.88409,-0.668285 2.63138,-0.668285 h 1.79602 v -0.125304 q 0,-0.884087 -0.58475,-1.364418 -0.57779,-0.487291 -1.62895,-0.487291 -0.66829,0 -1.30177,0.16011 -0.63348,0.16011 -1.21823,0.48033 v -1.183424 q 0.7031,-0.271491 1.36442,-0.403756 0.66133,-0.139225 1.28784,-0.139225 1.6916,0 2.52696,0.877125 0.83536,0.877126 0.83536,2.659222 z" font-family="sans-serif" font-size="medium" font-style="normal" font-weight="normal" letter-spacing="0" word-spacing="0" style="line-height:1.25"/><path id="path892" fill="#23ce6b" fill-opacity="1" stroke="none" stroke-width=".356" d="m 277.49615,84.460374 q -0.2158,-0.125304 -0.47337,-0.180993 -0.25061,-0.06265 -0.5569,-0.06265 -1.08597,0 -1.67072,0.710054 -0.57779,0.703093 -0.57779,2.025742 v 4.107175 h -1.28784 V 83.26303 h 1.28784 v 1.211269 q 0.40376,-0.710054 1.05116,-1.051159 0.6474,-0.348065 1.57326,-0.348065 0.13226,0 0.29237,0.02088 0.16011,0.01392 0.35503,0.04873 z" font-family="sans-serif" font-size="medium" font-style="normal" font-weight="normal" letter-spacing="0" word-spacing="0" style="line-height:1.25"/><path id="path894" fill="#23ce6b" fill-opacity="1" stroke="none" stroke-width=".356" d="M 285.07005,86.353852 V 91.0597 h -1.28088 v -4.66408 q 0,-1.106849 -0.4316,-1.656792 -0.4316,-0.549944 -1.29481,-0.549944 -1.03723,0 -1.63591,0.661325 -0.59867,0.661324 -0.59867,1.80298 V 91.0597 h -1.28784 v -7.796671 h 1.28784 v 1.211269 q 0.45945,-0.703093 1.079,-1.051159 0.62652,-0.348065 1.441,-0.348065 1.34353,0 2.0327,0.835357 0.68917,0.828397 0.68917,2.443421 z" font-family="sans-serif" font-size="medium" font-style="normal" font-weight="normal" letter-spacing="0" word-spacing="0" style="line-height:1.25"/><path id="path896" fill="#23ce6b" fill-opacity="1" stroke="none" stroke-width=".356" d="m 294.29379,86.841143 v 0.62652 h -5.88927 q 0.0835,1.322649 0.79359,2.01878 0.71701,0.68917 1.99093,0.68917 0.7379,0 1.42707,-0.180994 0.69613,-0.180994 1.37834,-0.542982 v 1.211268 q -0.68917,0.292376 -1.41315,0.445524 -0.72397,0.153149 -1.46883,0.153149 -1.86564,0 -2.95856,-1.085965 -1.08597,-1.085964 -1.08597,-2.937674 0,-1.914361 1.03028,-3.035133 1.03723,-1.127732 2.79148,-1.127732 1.57326,0 2.48519,1.016351 0.9189,1.009391 0.9189,2.749718 z m -1.28088,-0.375911 q -0.0139,-1.051158 -0.59172,-1.677676 -0.57082,-0.626518 -1.51756,-0.626518 -1.07204,0 -1.71945,0.605634 -0.64044,0.605634 -0.7379,1.705522 z" font-family="sans-serif" font-size="medium" font-style="normal" font-weight="normal" letter-spacing="0" word-spacing="0" style="line-height:1.25"/><path id="path898" fill="#23ce6b" fill-opacity="1" stroke="none" stroke-width=".356" d="m 300.91401,84.460374 q -0.2158,-0.125304 -0.47337,-0.180993 -0.2506,-0.06265 -0.5569,-0.06265 -1.08597,0 -1.67072,0.710054 -0.57779,0.703093 -0.57779,2.025742 v 4.107175 h -1.28784 V 83.26303 h 1.28784 v 1.211269 q 0.40376,-0.710054 1.05116,-1.051159 0.6474,-0.348065 1.57326,-0.348065 0.13226,0 0.29237,0.02088 0.16011,0.01392 0.35503,0.04873 z" font-family="sans-serif" font-size="medium" font-style="normal" font-weight="normal" letter-spacing="0" word-spacing="0" style="line-height:1.25"/><path id="path900" fill="#23ce6b" fill-opacity="1" stroke="none" stroke-width=".356" d="m 307.22792,83.492751 v 1.211269 q -0.54299,-0.278453 -1.12774,-0.417679 -0.58475,-0.139226 -1.21126,-0.139226 -0.9537,0 -1.43403,0.292376 -0.47337,0.292375 -0.47337,0.877126 0,0.445524 0.3411,0.703092 0.3411,0.250608 1.37138,0.480331 l 0.43856,0.09746 q 1.36442,0.292375 1.93525,0.828397 0.57779,0.529059 0.57779,1.482759 0,1.085965 -0.86321,1.719445 -0.85624,0.633478 -2.35988,0.633478 -0.62652,0 -1.30873,-0.125303 -0.67525,-0.118343 -1.42707,-0.361989 v -1.322648 q 0.71006,0.368949 1.39923,0.556905 0.68917,0.180993 1.36441,0.180993 0.90497,0 1.39227,-0.306297 0.48729,-0.31326 0.48729,-0.877126 0,-0.522099 -0.35503,-0.800551 -0.34806,-0.278453 -1.53845,-0.536021 l -0.44552,-0.10442 q -1.19039,-0.250607 -1.71945,-0.765745 -0.52906,-0.522098 -0.52906,-1.427069 0,-1.099887 0.77967,-1.69856 0.77967,-0.598673 2.2137,-0.598673 0.71005,0 1.33657,0.104419 0.62652,0.10442 1.15558,0.313259 z" font-family="sans-serif" font-size="medium" font-style="normal" font-weight="normal" letter-spacing="0" word-spacing="0" style="line-height:1.25"/></g></g></g></g></svg>